# xmcd
#
# Track frame offsets:
# 150
# 18387
# 35256
# 59601
# 75910
# 94572
# 107462
# 120254
# 133779
# 150043
# 170889
# 185517
# 198047
# 209969
# 228233
# 239618
# 252296
# 271183
#
# Disc length: 3848 seconds
#
#
# Revision: 0
# Processed by: cddbd v1.5.2PL0 Copyright (c) Steve Scherf et al.
# Submitted via: FreeRIP 2.945 
#
DISCID=e50f0612
DTITLE=Hank Williams Jr - Bocephus Box Disc 2
DYEAR=1900
DGENRE=Country
TTITLE0=All My Rowdy Friends (Have Settled Down) (Previously Unreleased Alternate Version)
TTITLE1=I've Been Down
TTITLE2=La Grange
TTITLE3=Leave Them Boys Alone
TTITLE4=Blue Jean Blues
TTITLE5=Midnight Rider
TTITLE6=Now I Know How George Feels (Previously Unreleased Alternate Version)
TTITLE7=All My Rowdy Friends Are Coming Over Tonight
TTITLE8=Major Moves
TTITLE9=Ain't Misbehavin'
TTITLE10=Lawyers, Guns And Money
TTITLE11=This Ain't Dallas
TTITLE12=Two Old Cats Like Us
TTITLE13=Country State Of Mind
TTITLE14=Mind Your Own Business
TTITLE15=Secret Agent Man
TTITLE16=Wild Dogs
TTITLE17=My Name Is Bocephus
EXTD=
EXTT0=
EXTT1=
EXTT2=
EXTT3=
EXTT4=
EXTT5=
EXTT6=
EXTT7=
EXTT8=
EXTT9=
EXTT10=
EXTT11=
EXTT12=
EXTT13=
EXTT14=
EXTT15=
EXTT16=
EXTT17=
PLAYORDER=
